<svg width="131" height="130" viewBox="0 0 131 130" fill="none" xmlns="http://www.w3.org/2000/svg">
<g clip-path="url(#clip0_1_209)">
<path fill-rule="evenodd" clip-rule="evenodd" d="M66.2512 0.0498047C63.7659 0.0498047 61.7512 2.06452 61.7512 4.5498C61.7512 7.03509 63.7659 9.0498 66.2512 9.0498C96.6823 9.0498 121.431 34.0083 121.431 64.907C121.431 95.8056 96.6823 120.764 66.2512 120.764C45.2832 120.764 27.0151 108.922 17.673 91.4246C16.5024 89.2323 13.7763 88.4039 11.5839 89.5745C9.39154 90.745 8.5632 93.4712 9.73375 95.6636C20.5602 115.941 41.7935 129.764 66.2512 129.764C101.749 129.764 130.431 100.68 130.431 64.907C130.431 29.1341 101.749 0.0498047 66.2512 0.0498047ZM44.6354 13.3543C46.9236 12.3843 47.9922 9.74303 47.0221 7.45486C46.0521 5.16669 43.4109 4.09811 41.1227 5.06811C36.2246 7.14453 31.6003 9.81522 27.3539 13.0201C25.3702 14.5172 24.9758 17.3391 26.4729 19.3228C27.9701 21.3065 30.7919 21.7009 32.7756 20.2038C36.4333 17.4432 40.4164 15.1428 44.6354 13.3543ZM22.0416 30.9373C23.5377 28.9528 23.1418 26.1312 21.1573 24.6351C19.1728 23.139 16.3512 23.5349 14.8551 25.5194C11.6533 29.7663 8.98591 34.3907 6.91283 39.2886C5.94411 41.5773 7.01417 44.218 9.30289 45.1867C11.5916 46.1554 14.2323 45.0854 15.201 42.7967C16.9865 38.5781 19.284 34.5951 22.0416 30.9373ZM52.1983 48.5269C52.1983 48.4782 52.2057 48.4581 52.2268 48.4253C52.2581 48.3767 52.3388 48.2832 52.4982 48.1965C52.8322 48.0147 53.2531 47.9917 53.6302 48.1852L53.6303 48.1852L85.5824 64.5745C85.6342 64.601 85.6864 64.6266 85.7391 64.6511C85.7879 64.6737 85.8291 64.7099 85.8581 64.7552C85.887 64.8005 85.9023 64.8532 85.9023 64.9069C85.9023 64.9607 85.887 65.0133 85.8581 65.0587C85.8291 65.104 85.7879 65.1401 85.7391 65.1628C85.6862 65.1874 85.6338 65.213 85.5819 65.2396L53.6437 81.6265L53.643 81.6269C53.2579 81.8236 52.8323 81.7984 52.4981 81.6167C52.3384 81.5298 52.2577 81.4363 52.2266 81.388C52.2057 81.3555 52.1983 81.3356 52.1983 81.2869V48.5269ZM43.1983 48.5269C43.1983 40.8062 51.6788 37.0693 57.7378 40.1772L57.7379 40.1772L89.625 56.5332C91.1889 57.2811 92.5128 58.4525 93.4458 59.9151C94.397 61.4063 94.9023 63.1382 94.9023 64.9069C94.9023 66.6757 94.397 68.4076 93.4458 69.8987C92.5129 71.3613 91.1891 72.5325 89.6254 73.2805L57.7476 89.6364L57.743 89.6388C51.6836 92.7389 43.1983 89.0144 43.1983 81.2869V48.5269ZM11.2702 57.4628C11.5745 54.9962 9.82155 52.75 7.35497 52.4458C4.88838 52.1415 2.64216 53.8944 2.3379 56.361C1.68684 61.639 1.68684 66.977 2.3379 72.255C2.64216 74.7216 4.88838 76.4745 7.35497 76.1702C9.82155 75.866 11.5745 73.6197 11.2702 71.1531C10.7094 66.6069 10.7094 62.009 11.2702 57.4628Z" fill="white"/>
</g>
<defs>
<clipPath id="clip0_1_209">
<rect width="130" height="130" fill="white" transform="translate(0.5)"/>
</clipPath>
</defs>
</svg>
