<svg width="100" height="99" viewBox="0 0 100 99" fill="none" xmlns="http://www.w3.org/2000/svg">
<rect x="0.166992" width="99" height="99" rx="49.5" fill="#22B3CB"/>
<g clip-path="url(#clip0_612_1647)">
<path d="M48.0922 31.5817C45.9452 32.0322 44.1221 33.44 43.1647 35.3829C42.672 36.3895 42.5241 37.009 42.4819 38.2056C42.4537 39.0926 42.4678 39.2615 42.6227 39.8599C42.7212 40.2259 42.9183 40.8313 43.0591 41.1973C43.3477 41.9294 44.2136 43.7033 44.65 44.4495C44.8049 44.7029 44.9245 44.9352 44.9245 44.9563C44.9245 44.9774 43.7982 44.9985 42.4256 44.9985H39.9266V43.9708C39.9266 43.2669 39.8914 42.8093 39.814 42.5137C39.4339 41.0495 38.2442 39.8599 36.7801 39.4797C36.2381 39.339 35.154 39.3319 34.6261 39.4727C33.1689 39.8528 31.9652 41.0565 31.5851 42.5137C31.5006 42.8304 31.4795 43.4288 31.4795 45.3927V47.8635L31.6625 48.0536C31.8103 48.2014 31.9159 48.2366 32.1834 48.2366C32.4509 48.2366 32.5565 48.2014 32.7043 48.0536L32.8874 47.8635V45.8151C32.8874 44.6888 32.9226 43.5414 32.9578 43.2739C33.0985 42.2955 33.6969 41.4719 34.5627 41.0706C34.9147 40.9017 35.0484 40.8806 35.7031 40.8806C36.3577 40.8806 36.4844 40.9017 36.8505 41.0706C37.3573 41.31 37.9768 41.9224 38.202 42.4151C38.3006 42.6193 38.4062 43.0064 38.4484 43.2739C38.4906 43.5837 38.5188 46.8217 38.5188 51.9182V60.0696L38.2231 59.8655C37.3925 59.2953 36.6886 59.0771 35.7031 59.0771C34.7176 59.0771 34.0136 59.2953 33.19 59.8655L32.8874 60.0696V56.4515V52.8333L32.7043 52.6432C32.5565 52.4954 32.4509 52.4602 32.1834 52.4602C31.9159 52.4602 31.8103 52.4954 31.6625 52.6432L31.4795 52.8333V58.3873C31.4795 64.5185 31.4725 64.3636 31.923 65.2365C32.2468 65.863 33.1408 66.7218 33.8025 67.0456C34.8372 67.5594 33.6687 67.5242 49.5986 67.5242C65.5496 67.5242 64.3037 67.5594 65.3032 67.0456C65.979 66.7006 66.7181 65.9545 67.049 65.2998C67.5558 64.3002 67.5206 65.1027 67.5206 53.4457C67.5206 44.1327 67.5065 42.8938 67.408 42.5137C67.0279 41.0495 65.8382 39.8599 64.3741 39.4797C63.832 39.339 62.748 39.3319 62.22 39.4727C60.7629 39.8528 59.5592 41.0565 59.1791 42.5137C59.1087 42.7812 59.0735 43.2669 59.0735 43.9567V44.9985H56.5745C55.2019 44.9985 54.0756 44.9845 54.0756 44.9634C54.0756 44.9422 54.2164 44.6818 54.3853 44.3791C55.3215 42.7319 56.0888 40.9862 56.3704 39.8669C56.652 38.7547 56.5886 37.375 56.1874 36.1994C55.4623 34.0736 53.5406 32.2786 51.3655 31.6873C50.6475 31.4972 48.8032 31.4338 48.0922 31.5817ZM50.8305 33.1092C51.9145 33.3556 53.0619 34.0736 53.8081 34.9746C54.2586 35.5166 54.8077 36.65 54.9555 37.3468C55.1456 38.2268 55.0822 39.1419 54.7514 40.1062C54.2657 41.5352 53.1886 43.6048 51.7174 45.9137C50.8234 47.3145 49.5634 49.1517 49.493 49.1517C49.4367 49.1517 47.7543 46.6739 47.0574 45.5617C45.7763 43.5203 44.6852 41.3944 44.2417 40.0851C43.763 38.6773 43.8405 37.4524 44.5022 36.0939C45.0935 34.8831 45.8608 34.1158 47.0715 33.5245C48.3245 32.9121 49.4437 32.7924 50.8305 33.1092ZM64.4445 41.0777C64.9513 41.31 65.5707 41.9224 65.796 42.4151C65.8945 42.6193 66.0001 43.0064 66.0424 43.2739C66.0846 43.5837 66.1128 46.8217 66.1128 51.9111V60.0485L65.6622 59.7458C64.902 59.239 64.4163 59.1123 63.2619 59.1123C62.3608 59.1193 62.2341 59.1334 61.7906 59.3094C61.5231 59.415 61.1219 59.6262 60.8967 59.781L60.4813 60.0626V51.9182C60.4813 46.8217 60.5095 43.5837 60.5517 43.2739C60.7207 42.1476 61.4316 41.2818 62.4735 40.9439C62.9662 40.782 63.9517 40.8454 64.4445 41.0777ZM45.002 50.63L49.4297 54.8535H54.2516H59.0735V56.2614V57.6692H56.2085H53.3435L49.1129 61.8928L44.8893 66.1164H42.9676H41.0529L44.8401 62.5123C46.9166 60.5272 48.6553 58.8589 48.7046 58.7955C48.7539 58.7392 48.7961 58.5421 48.7961 58.3591C48.7961 58.0846 48.7609 58.0001 48.5709 57.803C48.4442 57.6763 46.445 55.7686 44.1361 53.5653L39.9266 49.56V47.9832V46.4064H40.2434H40.5672L45.002 50.63ZM46.5154 47.4764C47.4727 48.9476 48.6905 50.6863 48.958 50.9608C49.1411 51.1579 49.2255 51.1931 49.5001 51.1931C49.7746 51.1931 49.8591 51.1579 50.0421 50.9608C50.3096 50.6863 51.5274 48.9476 52.4847 47.4764L53.1886 46.4064H56.1311H59.0735V49.926V53.4457H54.5965H50.1266L46.438 49.926L42.7424 46.4064H44.2769H45.8115L46.5154 47.4764ZM43.6856 55.2055C45.4877 56.9231 46.9659 58.3521 46.9659 58.3732C46.9659 58.3943 45.1427 60.1471 42.9183 62.2659L38.8778 66.1164H37.484C36.7167 66.1164 35.8509 66.0812 35.5623 66.046C34.5345 65.9122 33.5983 65.2646 33.1619 64.3777C33.0141 64.0891 32.9929 63.9342 32.9929 63.3007C32.9929 62.646 33.0141 62.5193 33.183 62.1533C33.4294 61.6324 34.0348 61.027 34.5557 60.7806C34.9217 60.6117 35.0484 60.5905 35.7031 60.5905C36.3577 60.5905 36.4844 60.6117 36.8294 60.7736C37.8149 61.2452 38.3498 62.0406 38.4836 63.2444C38.5469 63.7864 38.7581 64.0046 39.2227 64.0046C39.4902 64.0046 39.5958 63.9694 39.7436 63.8216L39.9266 63.6315V57.6552V51.6788L40.166 51.8759C40.2927 51.9815 41.8765 53.4809 43.6856 55.2055ZM59.0735 61.3578V63.6315L59.2565 63.8216C59.4043 63.9694 59.5099 64.0046 59.7774 64.0046C60.242 64.0046 60.4602 63.7864 60.5165 63.2444C60.6362 62.0618 61.1923 61.2311 62.1567 60.7806C62.5086 60.6117 62.6424 60.5905 63.297 60.5905C63.9658 60.5905 64.0784 60.6117 64.4726 60.7947C65.0076 61.0411 65.5496 61.5901 65.8171 62.1533C65.986 62.5193 66.0072 62.646 66.0072 63.3007C66.0072 63.9553 65.986 64.082 65.8171 64.4481C65.5778 64.9549 64.9654 65.5744 64.4726 65.7996C64.2685 65.8982 63.8813 66.0038 63.6138 66.046C63.3041 66.0882 60.1012 66.1164 55.0963 66.1164H47.0715L50.5911 62.5967L54.1108 59.0771H56.5886H59.0735V61.3578Z" fill="white"/>
</g>
<defs>
<clipPath id="clip0_612_1647">
<rect width="37" height="37" fill="white" transform="translate(31.167 31)"/>
</clipPath>
</defs>
</svg>
